<svg width="1190" height="376" viewBox="0 0 1190 376" fill="none" xmlns="http://www.w3.org/2000/svg">
<path d="M254 101V81L334 1H354V21L274 101H254Z" fill="white"/>
<path d="M254 41V1H294L254 41Z" fill="white"/>
<path d="M354 61V101H314L354 61Z" fill="white"/>
<path d="M254 101V81L334 1H354V21L274 101H254Z" stroke="white"/>
<path d="M254 41V1H294L254 41Z" stroke="white"/>
<path d="M354 61V101H314L354 61Z" stroke="white"/>
<path d="M381 101V81L461 1H481V21L401 101H381Z" fill="white"/>
<path d="M381 41V1H421L381 41Z" fill="white"/>
<path d="M481 61V101H441L481 61Z" fill="white"/>
<path d="M381 101V81L461 1H481V21L401 101H381Z" stroke="white"/>
<path d="M381 41V1H421L381 41Z" stroke="white"/>
<path d="M481 61V101H441L481 61Z" stroke="white"/>
<path d="M508 101V81L588 1H608V21L528 101H508Z" fill="white"/>
<path d="M508 41V1H548L508 41Z" fill="white"/>
<path d="M608 61V101H568L608 61Z" fill="white"/>
<path d="M508 101V81L588 1H608V21L528 101H508Z" stroke="white"/>
<path d="M508 41V1H548L508 41Z" stroke="white"/>
<path d="M608 61V101H568L608 61Z" stroke="white"/>
<path d="M508 228V208L588 128H608V148L528 228H508Z" fill="white"/>
<path d="M508 168V128H548L508 168Z" fill="white"/>
<path d="M608 188V228H568L608 188Z" fill="white"/>
<path d="M508 228V208L588 128H608V148L528 228H508Z" stroke="white"/>
<path d="M508 168V128H548L508 168Z" stroke="white"/>
<path d="M608 188V228H568L608 188Z" stroke="white"/>
<rect x="508" y="254" width="100" height="99" fill="#C9177C"/>
<rect x="381" y="254" width="100" height="99" fill="#C9177C"/>
<rect x="254" y="254" width="100" height="99" fill="#C9177C"/>
<rect x="381" y="128" width="100" height="99" fill="#C9177C"/>
<rect x="254" y="128" width="100" height="99" fill="#C9177C"/>
<rect y="2" width="100" height="99" fill="#C9177C"/>
<rect x="127" y="2" width="100" height="99" fill="#C9177C"/>
<rect x="127" y="254" width="100" height="99" fill="#C9177C"/>
<path d="M845 161.86C853.5 116.86 917 123.36 917 161.86H901.5C897 134.36 862.274 141.103 861.5 161.86C860.726 182.618 859.66 181.972 861.5 194.86C867.5 219.86 898.5 217.86 901.5 194.86H917C919 228.86 855.5 242.36 845 194.86C843.235 181.971 843.22 174.75 845 161.86Z" fill="white"/>
<path d="M689.5 131.86V144.36H717.5V224.86H733.5V144.36H762.5V131.86H689.5Z" fill="white"/>
<path d="M687 13.3597H705L728.5 85.3597L752 13.3597H769.5L736.5 105.86H720.5L687 13.3597Z" fill="white"/>
<path d="M780.5 13.3597H796V93.3597H838V105.86H780.5V13.3597Z" fill="white"/>
<path d="M773.5 131.86V224.86H834.5V211.86H790.5V182.86H828.5V170.36H790.5V144.86H834.5V131.86H773.5Z" fill="white"/>
<path d="M917 43.3596C917 4.85984 853.5 -1.64016 845 43.3596C843.22 56.2492 843.235 63.4703 845 76.3599C855.5 123.86 919 110.36 917 76.3599H901.5C898.5 99.3599 867.5 101.36 861.5 76.3599C859.66 63.4712 860.726 64.117 861.5 43.3596C862.274 22.6023 897 15.8598 901.5 43.3596H917Z" fill="white"/>
<path d="M931.5 131.86H947.5V169.86H989.5V131.86H1005.5V224.86H989.5V183.86H947.5V224.86H931.5V131.86Z" fill="white"/>
<path d="M926 248.86H1005V266.36H976.5V343.86H953.5V266.36H926V248.86Z" fill="white"/>
<path d="M915 276.86C916 238.86 843 235.86 843 276.86V278.86C843 283.001 849.633 294.361 860 298.361C871.524 302.807 877 304.001 886.5 309.361C890.635 312.25 892.148 313.467 892 316.861C891.461 333.057 863 330.001 863 313.361H840C840 351.861 916 358.361 915 313.361C915.063 303.243 904.576 296.185 886.5 288.36C880.331 285.69 875 285.86 867 278.233L866 276.86C860 265.86 890.653 256.219 892 276.86H915Z" fill="white"/>
<path d="M764 248.86H828.5V265.86H786.5V286.86H821.5V302.86H786.5V325.86H828.5V343.36H764V248.86Z" fill="white"/>
<path d="M689 343.36H711.5V305.86H748.5V287.86H711.5V265.86H752.5V248.86H689V343.36Z" fill="white"/>
<path d="M1032 248.36H1043L1040.5 269.36H1034.5L1032 248.36Z" fill="white"/>
<path d="M845 161.86C853.5 116.86 917 123.36 917 161.86H901.5C897 134.36 862.274 141.103 861.5 161.86C860.726 182.618 859.66 181.972 861.5 194.86C867.5 219.86 898.5 217.86 901.5 194.86H917C919 228.86 855.5 242.36 845 194.86C843.235 181.971 843.22 174.75 845 161.86Z" stroke="white"/>
<path d="M689.5 131.86V144.36H717.5V224.86H733.5V144.36H762.5V131.86H689.5Z" stroke="white"/>
<path d="M687 13.3597H705L728.5 85.3597L752 13.3597H769.5L736.5 105.86H720.5L687 13.3597Z" stroke="white"/>
<path d="M780.5 13.3597H796V93.3597H838V105.86H780.5V13.3597Z" stroke="white"/>
<path d="M773.5 131.86V224.86H834.5V211.86H790.5V182.86H828.5V170.36H790.5V144.86H834.5V131.86H773.5Z" stroke="white"/>
<path d="M917 43.3596C917 4.85984 853.5 -1.64016 845 43.3596C843.22 56.2492 843.235 63.4703 845 76.3599C855.5 123.86 919 110.36 917 76.3599H901.5C898.5 99.3599 867.5 101.36 861.5 76.3599C859.66 63.4712 860.726 64.117 861.5 43.3596C862.274 22.6023 897 15.8598 901.5 43.3596H917Z" stroke="white"/>
<path d="M931.5 131.86H947.5V169.86H989.5V131.86H1005.5V224.86H989.5V183.86H947.5V224.86H931.5V131.86Z" stroke="white"/>
<path d="M926 248.86H1005V266.36H976.5V343.86H953.5V266.36H926V248.86Z" stroke="white"/>
<path d="M915 276.86C916 238.86 843 235.86 843 276.86V278.86C843 283.001 849.633 294.361 860 298.361C871.524 302.807 877 304.001 886.5 309.361C890.635 312.25 892.148 313.467 892 316.861C891.461 333.057 863 330.001 863 313.361H840C840 351.861 916 358.361 915 313.361C915.063 303.243 904.576 296.185 886.5 288.36C880.331 285.69 875 285.86 867 278.233L866 276.86C860 265.86 890.653 256.219 892 276.86H915Z" stroke="white"/>
<path d="M764 248.86H828.5V265.86H786.5V286.86H821.5V302.86H786.5V325.86H828.5V343.36H764V248.86Z" stroke="white"/>
<path d="M689 343.36H711.5V305.86H748.5V287.86H711.5V265.86H752.5V248.86H689V343.36Z" stroke="white"/>
<path d="M1032 248.36H1043L1040.5 269.36H1034.5L1032 248.36Z" stroke="white"/>
<path d="M1111.5 330.938V345H1049.25V333L1078.69 301.438C1081.65 298.146 1083.98 295.25 1085.69 292.75C1087.4 290.208 1088.62 287.938 1089.38 285.938C1090.17 283.896 1090.56 281.958 1090.56 280.125C1090.56 277.375 1090.1 275.021 1089.19 273.062C1088.27 271.062 1086.92 269.521 1085.12 268.438C1083.38 267.354 1081.21 266.812 1078.62 266.812C1075.88 266.812 1073.5 267.479 1071.5 268.812C1069.54 270.146 1068.04 272 1067 274.375C1066 276.75 1065.5 279.438 1065.5 282.438H1047.44C1047.44 277.021 1048.73 272.062 1051.31 267.562C1053.9 263.021 1057.54 259.417 1062.25 256.75C1066.96 254.042 1072.54 252.688 1079 252.688C1085.38 252.688 1090.75 253.729 1095.12 255.812C1099.54 257.854 1102.88 260.812 1105.12 264.688C1107.42 268.521 1108.56 273.104 1108.56 278.438C1108.56 281.438 1108.08 284.375 1107.12 287.25C1106.17 290.083 1104.79 292.917 1103 295.75C1101.25 298.542 1099.12 301.375 1096.62 304.25C1094.12 307.125 1091.35 310.104 1088.31 313.188L1072.5 330.938H1111.5ZM1186.5 311V325.125H1120.94L1120.06 314.188L1158 254H1172.31L1156.81 279.938L1137.94 311H1186.5ZM1176.19 254V345H1158.19V254H1176.19Z" fill="white"/>
</svg>
