<?xml version="1.0" encoding="UTF-8" standalone="no"?>
<!-- Created with Inkscape (http://www.inkscape.org/) -->

<svg
   width="296.48419mm"
   height="258.75818mm"
   viewBox="0 0 296.48419 258.75818"
   version="1.1"
   id="svg5"
   inkscape:version="1.1.2 (0a00cf5339, 2022-02-04)"
   sodipodi:docname="gnulinuxvlc.svg"
   xmlns:inkscape="http://www.inkscape.org/namespaces/inkscape"
   xmlns:sodipodi="http://sodipodi.sourceforge.net/DTD/sodipodi-0.dtd"
   xmlns="http://www.w3.org/2000/svg"
   xmlns:svg="http://www.w3.org/2000/svg">
  <sodipodi:namedview
     id="namedview7"
     pagecolor="#ffffff"
     bordercolor="#666666"
     borderopacity="1.0"
     inkscape:pageshadow="2"
     inkscape:pageopacity="0.0"
     inkscape:pagecheckerboard="0"
     inkscape:document-units="mm"
     showgrid="false"
     inkscape:zoom="0.60221134"
     inkscape:cx="598.62705"
     inkscape:cy="559.60421"
     inkscape:window-width="1280"
     inkscape:window-height="965"
     inkscape:window-x="0"
     inkscape:window-y="0"
     inkscape:window-maximized="1"
     inkscape:current-layer="g181" />
  <defs
     id="defs2" />
  <g
     inkscape:label="Capa 1"
     inkscape:groupmode="layer"
     id="layer1"
     transform="translate(294.97438,20.338612)">
    <g
       id="g181"
       transform="translate(-250.58421,-37.34069)">
      <path
         style="fill:#fb6400;stroke-width:0.264583"
         d="m 23.579334,233.76437 1.40513,-1.68505 -4.097487,-2.54844 z m 162.946536,-1.06181 -5.69051,-1.65756 2.31598,-2.38187 6.5743,-13.8401 2.02511,-1.63241 1.05111,-3.53055 0.47142,-3.94707 1.41049,3.11507 6.62343,2.08452 2.75264,1.43031 -5.61202,6.33257 -0.20778,3.01216 -5.47563,6.26963 -2.58349,6.0329 z M 6.2722222,204.677 5.7620448,202.614 5.1243074,200.7832 4.4072579,198.77145 3.7430501,196.91167 3.4967038,195.59583 2.9240359,193.9608 l -0.6573026,-2.40562 -1.1567094,-5.03162 -1.67144137,-8.88761 -0.41465578,-25.24776 2.55049785,-11.13746 0.6053919,-2.13941 0.3241388,-2.0963 0.559765,-2.40285 2.1392121,-5.02988 0.4766859,-2.91745 c 0,0 1.1520448,-2.95071 1.6393755,-4.01637 0.4873414,-1.06565 1.3582183,-2.23331 1.3582183,-2.23331 l 3.4695429,-7.32052 3.876265,-6.64974 c 0,0 4.20293,-5.01451 4.524229,-5.30532 0.08039,-0.0728 1.482166,-3.194687 1.915442,-3.776772 3.857575,-5.182428 11.851594,-11.528602 17.548678,-16.066756 3.710392,-2.955605 8.759425,-6.243394 10.631687,-7.211298 1.407295,-0.727528 3.159809,-2.344716 3.291711,-2.476421 0.311423,-0.310951 5.687227,-2.931623 8.620961,-4.2706 2.300275,-1.049864 5.468206,-2.542986 7.744044,-3.312116 0.945885,-0.319667 2.074043,-0.981211 2.365085,-1.102625 0.291042,-0.121415 1.127415,0.76089 2.00054,0.513539 2.63802,-0.747332 3.409368,-0.982149 4.097424,-1.247357 0.814298,-0.313867 51.735159,-0.442233 55.414939,-0.08039 2.2771,0.223912 4.34067,0.722998 5.60617,1.355884 0.25269,0.12637 0.64125,0.229764 0.86348,0.229764 0.22224,0 0.6108,0.108506 0.86349,0.241125 0.25269,0.13262 1.05474,0.439523 1.78235,0.682009 1.46998,0.489892 1.82408,0.629362 3.63513,1.431748 0.68964,0.305543 1.32615,0.555535 1.41447,0.555535 0.65883,0 11.09758,5.512486 12.83346,6.727812 0.38627,0.270433 0.79027,0.491696 0.89779,0.491696 0.10751,0 1.80491,1.082922 3.77199,2.406494 6.66838,4.486881 10.96094,8.329256 16.25908,13.632673 3.77057,3.774327 7.53859,7.794437 10.02062,11.153086 0.58672,0.79394 1.18136,1.5765 1.32141,1.73904 0.52702,0.61159 5.71993,8.70031 5.71993,8.70031 l 1.4035,2.51354 3.4949,6.98657 0.88605,2.05609 1.60872,3.92193 0.95582,2.51354 1.32502,1.93546 -0.69184,2.16795 0.83301,1.19062 -0.006,1.5875 1.71938,2.42832 0.13011,5.11231 1.9995,8.97183 0.72716,25.19898 -2.25342,11.23328 -1.66439,2.22091 -1.05382,10.27771 -3.69239,-1.54305 -1.50205,-10.05758 -1.41467,-1.73064 -8.67344,-16.29592 -2.44716,-1.52637 -3.2233,-3.62734 -1.98888,-3.07491 -0.15495,-1.43798 1.14016,-10.14225 -1.20687,-5.39274 0.18633,-2.80935 -1.80454,-3.85522 -3.31178,-7.91874 -5.22959,-6.57438 -14.21022,-9.15581 -1.97966,-0.67996 -10.84792,-1.43268 -9.26041,0.91915 -17.85946,10.3091 -9.92753,16.80104 -0.30431,2.26948 -1.24961,10.10866 1.63766,7.02561 -9.71232,-10.47904 -2.556189,-1.00967 -4.478324,-3.1187 -1.81576,-0.34972 -1.169806,-0.12389 -0.698061,-1.03716 8.891182,-5.91098 1.349778,-8.90584 -0.12938,-2.22708 -5.98703,-10.98932 -3.24325,-3.43047 -2.871345,2.52494 -1.379252,6.53138 0.752831,8.07807 c 0,0 -4.537606,-0.75706 -6.576982,-1.75358 -7.961636,-3.89038 -8.634347,-4.87599 -12.416616,-4.90688 -1.572501,-0.0128 -2.449791,0.84957 -2.806156,1.01624 -2.754299,1.28818 -4.090883,1.0005 -5.497731,2.40045 -0.87743,0.87313 -2.625828,3.38216 -2.625828,3.38216 l -0.928604,2.83379 -1.785235,-1.30398 -0.154943,-2.08974 -0.198437,-0.45379 -4.894792,-4.58477 -1.966831,0.38159 -3.431145,-1.58195 -12.015238,5.13755 -7.290254,2.86525 0.862811,-6.90006 0.329562,-5.09838 -0.502033,-4.10105 -3.741103,-2.37625 -2.189461,0.51289 -4.878664,8.74998 -1.237656,1.58405 -0.379167,2.38773 -1.083807,2.50707 0.02957,7.85616 0.319461,0.67613 2.709878,4.03306 5.558351,2.92385 2.300801,0.43302 -2.964776,0.83387 -5.884463,2.82959 -6.0435005,5.02057 -4.5248566,5.97735 6.0044641,2.81527 1.463416,0.51038 1.533298,0.31326 2.011943,0.45944 -1.751165,2.08716 -3.6592492,9.19031 -1.0265634,1.47403 -1.8546843,7.45699 -0.4669346,7.16567 1.3891165,13.01321 -0.4182137,2.15065 z M 126.94165,95.396518 c 2.26189,-1.33613 1.87876,-4.937546 -0.60442,-5.681522 -1.60905,-0.482084 -3.05908,0.106862 -3.86458,1.569643 -0.55443,1.006835 -0.58614,1.229612 -0.30135,2.116667 0.3652,1.13751 0.94617,1.885244 1.7066,2.196481 0.8894,0.364027 2.25911,0.274045 3.06375,-0.201269 z m 30.46811,-1.994074 c 0.78788,-0.371825 2.0546,-2.169949 2.0546,-2.916553 0,-0.657862 -0.44591,-1.49084 -1.27246,-2.37704 -0.57525,-0.616771 -0.89212,-0.727605 -2.08016,-0.727605 -1.17116,0 -1.54201,0.125516 -2.25616,0.763604 -0.77578,0.693163 -0.67667,0.76071 -0.67667,2.143926 0,1.441085 -0.12225,1.715411 0.84887,2.554854 1.11446,0.963372 2.159,1.135965 3.38198,0.558814 z M 138.93842,84.77218 c 0.42516,-0.249548 1.00354,-0.897922 1.28529,-1.440834 0.65742,-1.26682 0.44425,-2.534954 -0.60197,-3.581175 -2.67009,-2.670091 -7.00338,0.626192 -5.04511,3.837755 0.94313,1.546733 2.85831,2.066718 4.36179,1.184254 z m -36.99281,85.6224 -2.133256,-3.41388 -0.689357,-2.31999 1.843063,-1.07501 1.75485,-0.66514 1.4946,-0.59689 2.94319,-0.60635 4.21806,-1.88491 0.49304,3.98456 -3.96874,2.7681 -3.00598,4.45965 -1.96116,1.34031 z m -80.593754,-12.63417 0.412491,-0.26458 0.248967,0.26458 -0.41249,0.26459 z"
         id="path187"
         sodipodi:nodetypes="ccccccccccccccccccccccccccccccccccccsccccssssssssssssssssssssssccccccccccccccccccccccccccccccccccccccccccccccccccccccscssccccccccccccccccccccccccccccccccccccccccssssssssssssssssssscccccccccccccccccc" />
      <path
         style="fill:#60a127;stroke-width:0.264583"
         d="m -37.893282,275.36197 c -1.859225,-0.52278 -2.936244,-1.20486 -4.238382,-2.68417 -1.811812,-2.05832 -2.248422,-3.5849 -2.257572,-7.89342 -0.0077,-3.60684 0.01375,-3.74936 0.814582,-5.42396 1.817353,-3.8002 5.379252,-5.82084 10.260751,-5.82084 1.599651,0 5.610203,0.84487 6.037118,1.27178 0.11339,0.11339 -0.105754,0.99234 -0.48699,1.95321 l -0.693153,1.74705 -0.935909,-0.39105 c -1.632197,-0.68197 -3.946256,-0.93049 -5.55482,-0.59655 -1.141288,0.23693 -1.737625,0.56253 -2.729512,1.49033 -1.593324,1.49036 -2.201438,3.12987 -2.189251,5.90232 0.01453,3.30532 1.020372,5.43576 3.084556,6.53329 0.943647,0.50173 4.788959,0.61522 5.249259,0.15492 0.140863,-0.14086 0.221008,-1.19732 0.1781,-2.34769 l -0.07801,-2.09156 -2.050521,-0.0773 -2.050521,-0.0773 v -1.84095 -1.84095 h 4.233334 4.233333 v 5.66733 5.66734 l -1.918229,0.44486 c -2.735173,0.63432 -7.110595,0.75872 -8.908159,0.25327 z m 45.785506,-0.16084 c -1.2718097,-0.4027 -1.9917489,-0.83981 -2.9323241,-1.78039 -2.0319815,-2.03198 -2.1288772,-2.55968 -2.1288772,-11.59391 v -7.75808 h 2.2342607 2.2342634 l 0.080841,7.75139 c 0.07162,6.86696 0.1339585,7.83237 0.5463566,8.46116 0.6848052,1.04413 1.9029124,1.56745 3.6484716,1.56745 1.763879,0 2.756995,-0.41039 3.535138,-1.46085 0.526875,-0.71126 0.556614,-1.11376 0.630396,-8.53281 l 0.07743,-7.78634 h 2.237671 2.237669 v 7.946 c 0,8.57599 -0.04152,8.8772 -1.484482,10.76902 -2.00682,2.63108 -6.852806,3.70415 -10.9168168,2.41736 z m 79.241602,0.19095 c -1.369605,-0.50983 -2.668637,-1.81269 -3.038615,-3.04757 -0.18815,-0.62799 -0.301688,-3.31048 -0.301688,-7.12781 v -6.12087 h 2.248958 2.248958 v 5.56939 c 0,7.03799 0.134258,7.3952 2.779464,7.3952 1.526395,0 2.606297,-0.89533 3.00903,-2.49472 0.163459,-0.64916 0.296923,-3.26723 0.296923,-5.82453 v -4.64534 h 2.248958 2.248959 V 267.29792 275.5 H 97.165601 95.45643 l -0.317085,-1.05833 c -0.358976,-1.19817 -0.499147,-1.27619 -0.961789,-0.53538 -0.906891,1.45216 -4.881703,2.2906 -7.04373,1.48579 z m 63.466984,0.054 c -1.05851,-0.369 -2.23053,-1.47051 -2.67842,-2.51729 -0.20035,-0.46827 -0.35929,-1.53983 -0.35319,-2.38125 0.0252,-3.47433 2.05876,-4.92261 7.40385,-5.2729 l 2.63922,-0.17295 v -0.97245 c 0,-2.31329 -2.79434,-2.81507 -6.68215,-1.19991 -0.37664,0.15646 -0.59551,-0.0933 -1.15763,-1.32116 -0.79584,-1.73833 -0.80577,-1.72201 1.48978,-2.44852 0.98027,-0.31024 2.31874,-0.46034 4.10104,-0.4599 3.22279,8e-4 4.76744,0.60937 5.90444,2.32626 l 0.71015,1.07234 0.0789,6.70082 0.0789,6.70081 h -1.5896 -1.58961 l -0.31708,-1.05833 c -0.1744,-0.58209 -0.36861,-1.05834 -0.43158,-1.05834 -0.063,0 -0.58688,0.40434 -1.16424,0.89853 -1.58036,1.35273 -4.4266,1.86707 -6.44272,1.16424 z m 4.67935,-3.13031 c 1.46593,-0.40716 2.33211,-1.59051 2.33211,-3.18609 v -1.30262 l -1.12448,0.002 c -1.40637,0.002 -3.09838,0.45341 -3.69899,0.98719 -1.13529,1.00897 -0.71583,3.32414 0.64977,3.58626 0.331,0.0635 0.66136,0.13106 0.73412,0.15007 0.0728,0.019 0.57112,-0.0873 1.10747,-0.23629 z m 24.90413,2.91695 c -3.33325,-1.09052 -4.97208,-3.70589 -4.97208,-7.93482 0,-3.01779 0.60631,-4.7377 2.24942,-6.38081 3.47922,-3.47922 10.07912,-2.53181 12.06448,1.73185 0.49622,1.06566 0.62527,1.78956 0.62733,3.51889 l 0.003,2.17721 -5.22552,0.0717 -5.22552,0.0717 0.0892,0.66146 c 0.15029,1.11491 0.66311,1.93671 1.6036,2.56981 1.17527,0.79115 3.77744,0.82473 6.15501,0.0794 0.92247,-0.28917 1.70699,-0.52729 1.74337,-0.52917 0.0364,-0.002 0.0661,0.7593 0.0661,1.69151 v 1.69492 l -1.25677,0.4477 c -2.00607,0.71462 -5.93491,0.77838 -7.9212,0.12853 z m 5.7384,-10.57648 c 0,-0.48757 -0.2783,-1.10102 -0.7276,-1.60384 -1.43365,-1.60439 -4.18364,-1.22754 -4.98179,0.6827 -0.71214,1.70439 -0.70228,1.71071 2.66668,1.71071 h 3.04271 z m 31.27269,10.62171 c -2.3481,-0.83674 -3.65442,-2.45898 -4.25259,-5.2811 -0.82913,-3.91179 0.25458,-7.83638 2.66895,-9.66546 1.37832,-1.04418 3.68404,-1.59188 6.01652,-1.42917 2.1413,0.14937 4.35171,0.86848 4.15825,1.3528 -0.065,0.1628 -0.32782,0.83178 -0.58396,1.48663 -0.25612,0.65484 -0.54534,1.28223 -0.6427,1.39419 -0.0973,0.11195 -0.68972,0.0226 -1.31639,-0.19844 -1.36741,-0.48246 -3.17079,-0.51975 -4.12435,-0.0853 -1.12606,0.51307 -1.77988,2.13194 -1.79247,4.43827 -0.0127,2.33488 0.55039,3.79469 1.69151,4.38479 1.15734,0.59849 3.3324,0.48104 4.93839,-0.26665 l 1.38907,-0.6467 v 1.94347 1.94347 l -1.12448,0.46583 c -1.70262,0.70534 -5.27188,0.78832 -7.02575,0.16335 z m 23.36377,0.16813 c -1.05852,-0.369 -2.23055,-1.47051 -2.67843,-2.51729 -0.20034,-0.46827 -0.35928,-1.53983 -0.35319,-2.38125 0.0251,-3.47433 2.05877,-4.92261 7.40386,-5.2729 l 2.63922,-0.17295 v -0.97245 c 0,-2.31329 -2.79435,-2.81507 -6.68216,-1.19991 -0.37664,0.15646 -0.5955,-0.0933 -1.15763,-1.32116 -0.79584,-1.73833 -0.80577,-1.72201 1.48979,-2.44852 0.98028,-0.31024 2.31872,-0.46034 4.10104,-0.4599 3.22278,8e-4 4.76745,0.60937 5.90444,2.32626 l 0.71014,1.07234 0.0789,6.70082 0.0789,6.70081 h -1.58962 -1.58959 l -0.31708,-1.05833 c -0.17441,-0.58209 -0.36862,-1.05834 -0.43159,-1.05834 -0.063,0 -0.58687,0.40434 -1.16424,0.89853 -1.58036,1.35273 -4.42659,1.86707 -6.44271,1.16424 z m 4.67934,-3.13031 c 1.46595,-0.40716 2.33212,-1.59051 2.33212,-3.18609 v -1.30262 l -1.12448,0.002 c -1.40637,0.002 -3.09838,0.45341 -3.69898,0.98719 -1.1353,1.00897 -0.71583,3.32414 0.64976,3.58626 0.33099,0.0635 0.66135,0.13106 0.73411,0.15007 0.0728,0.019 0.57113,-0.0873 1.10747,-0.23629 z M -21.775227,264.77569 V 254.0514 l 2.945521,0.0748 2.945519,0.0748 4.480195,7.67292 c 2.464107,4.2201 4.5616681,7.75644 4.6612493,7.85852 0.099581,0.10208 0.1433327,-3.3805 0.097224,-7.73906 l -0.083831,-7.92467 h 2.0020598 2.0020624 V 264.78438 275.5 h -2.8466892 -2.8466864 l -4.6786319,-8.10801 -4.678633,-8.10801 0.15874,8.10801 0.158739,8.10801 h -2.158418 -2.15842 z m 44.979166,10.64456 c 0,-0.0835 2.15241,-5.84802 7.453789,-19.96246 l 0.521732,-1.38906 h 1.965365 c 1.08095,0 1.962991,0.0893 1.960091,0.19844 -0.0029,0.10914 -1.765379,4.9014 -3.916616,10.64948 l -3.911344,10.45104 -2.036508,0.0773 c -1.120079,0.0425 -2.036509,0.0314 -2.036509,-0.0247 z m 14.816667,-10.63589 v -10.71563 h 2.245392 2.245391 l 0.06971,8.7974 0.06971,8.79739 4.299479,0.0727 4.29948,0.0727 v 1.84553 1.84553 h -6.614584 -6.614583 z m 16.66875,2.51354 v -8.20209 h 2.248958 2.248959 v 8.20209 8.20208 h -2.248959 -2.248958 z m 9.260417,0 v -8.20209 h 1.709594 1.709592 l 0.28498,1.05834 c 0.319815,1.1877 0.518705,1.29493 0.99305,0.53538 0.501621,-0.80322 2.379345,-1.63795 4.01488,-1.78478 2.775509,-0.24918 4.901399,0.82185 5.871827,2.95824 0.426958,0.93995 0.486407,1.82934 0.491516,7.35314 l 0.0058,6.28385 h -2.248959 -2.248958 v -5.56939 c 0,-7.03798 -0.134258,-7.39519 -2.779464,-7.39519 -1.526394,0 -2.606296,0.89532 -3.009029,2.49472 -0.16346,0.64915 -0.296924,3.26722 -0.296924,5.82452 V 275.5 H 66.19872 63.949762 Z m 37.735747,7.87135 c 0.10788,-0.1819 1.26295,-1.93048 2.56682,-3.88573 1.30386,-1.95525 2.41739,-3.74119 2.4745,-3.96875 0.0571,-0.22756 -0.9469,-2.02109 -2.23115,-3.98562 -1.28425,-1.96453 -2.42651,-3.72071 -2.53836,-3.90261 -0.15719,-0.25562 0.36602,-0.33073 2.30398,-0.33073 h 2.50734 l 1.54317,2.51217 c 0.84874,1.38169 1.60269,2.51217 1.67545,2.51217 0.0728,0 0.82672,-1.13048 1.67546,-2.51217 l 1.54316,-2.51217 h 2.52216 2.52217 l -0.47261,0.72761 c -0.25994,0.40018 -1.45512,2.20149 -2.65596,4.00291 l -2.18334,3.27531 2.75959,4.13302 2.7596,4.13303 -2.29595,0.0771 c -1.26276,0.0424 -2.43003,0.0256 -2.59393,-0.0372 -0.16389,-0.0629 -0.99019,-1.25844 -1.83622,-2.65679 -0.84603,-1.39834 -1.63336,-2.54245 -1.74961,-2.54245 -0.11627,0 -0.94723,1.19063 -1.8466,2.64584 L 106.49997,275.5 h -2.5053 c -1.93246,0 -2.46045,-0.0756 -2.30915,-0.33073 z m 28.61855,-10.38675 -3.62799,-10.71377 2.30507,0.002 2.30508,0.002 2.18358,6.94339 c 1.20097,3.81886 2.32275,7.56846 2.49284,8.33244 0.17009,0.76398 0.3861,1.38906 0.48002,1.38906 0.0939,0 0.37493,-0.8632 0.62447,-1.91823 0.24954,-1.05502 1.3779,-4.77573 2.50746,-8.26823 l 2.05375,-6.35 2.32903,-0.0768 c 1.3642,-0.045 2.29101,0.0255 2.23727,0.17009 -0.0505,0.13579 -1.6991,4.96166 -3.66363,10.72413 l -3.57187,10.47724 -2.51354,2.6e-4 -2.51355,2.7e-4 z m 36.56862,-0.79189 v -11.50938 h 2.24896 2.24896 V 263.99063 275.5 h -2.24896 -2.24896 z m 26.9875,3.30729 v -8.20209 h 1.70959 1.7096 l 0.28498,1.05834 c 0.31981,1.1877 0.5187,1.29493 0.99305,0.53538 0.50162,-0.80322 2.37934,-1.63795 4.01488,-1.78478 2.7755,-0.24918 4.90139,0.82185 5.87182,2.95824 0.42696,0.93995 0.48641,1.82934 0.49152,7.35314 l 0.006,6.28385 h -2.24896 -2.24896 v -5.56939 c 0,-7.03798 -0.13425,-7.39519 -2.77946,-7.39519 -1.5264,0 -2.6063,0.89532 -3.00903,2.49472 -0.16346,0.64915 -0.29692,3.26722 -0.29692,5.82452 V 275.5 h -2.24896 -2.24896 z m 35.45417,0 v -8.20209 h 2.24895 2.24896 v 8.20209 8.20208 h -2.24896 -2.24895 z m -49.20365,-12.1895 c -1.46008,-1.17444 -2.65469,-2.24601 -2.65469,-2.38125 0,-0.13525 1.10133,-0.24388 2.4474,-0.24141 l 2.44739,0.005 1.7198,2.17832 c 0.94588,1.19808 1.75948,2.26762 1.80798,2.37676 0.0485,0.10914 -0.63212,0.19844 -1.5125,0.19844 h -1.60069 l -2.65469,-2.13535 z m -124.28145,1.61225 c -0.934114,-0.39013 -1.488866,-1.45771 -1.29486,-2.49185 0.09293,-0.49535 0.315301,-1.02208 0.494168,-1.17052 0.534757,-0.44381 1.721188,-0.64648 2.704576,-0.46199 1.611968,0.3024 2.212747,2.56221 0.976111,3.6716 -0.577762,0.51831 -2.136367,0.76334 -2.879995,0.45276 z m 174.625,0 c -0.93411,-0.39013 -1.48886,-1.45771 -1.29487,-2.49185 0.093,-0.49535 0.3153,-1.02208 0.49419,-1.17052 0.53475,-0.44381 1.72117,-0.64648 2.70457,-0.46199 1.61197,0.3024 2.21274,2.56221 0.9761,3.6716 -0.57777,0.51831 -2.13635,0.76334 -2.87999,0.45276 z M 100.32998,55.342772 c -2.037291,-0.112159 -6.085416,-0.333155 -8.995832,-0.491106 -8.409403,-0.456382 -9.401911,-0.563076 -11.641667,-1.251471 -2.150689,-0.661019 -2.43005,-0.763146 -4.141028,-1.513851 -0.531315,-0.233114 -1.033801,-0.423846 -1.116637,-0.423846 -0.371629,0 -6.787949,-3.057602 -9.043477,-4.309537 -1.192578,-0.661942 -3.738507,-2.267085 -4.351983,-2.743813 -4.549291,-3.53523 -6.31534,-5.33691 -7.611319,-7.764883 -0.489053,-0.91622 -0.590764,-1.528491 -0.590764,-3.556186 0,-3.830945 0.820375,-4.702914 5.025879,-5.34197 5.251212,-0.797958 14.027351,-0.243041 20.241829,1.279893 1.164167,0.285294 2.414323,0.577622 2.778125,0.649618 0.363802,0.072 0.899583,0.224328 1.190625,0.338514 0.291042,0.114186 1.600729,0.544805 2.910417,0.956932 1.309687,0.412125 2.500312,0.829096 2.645833,0.926601 0.145521,0.0975 0.605144,0.258796 1.021384,0.358425 0.41624,0.09963 1.279443,0.413702 1.918229,0.697941 0.638787,0.284238 1.695913,0.754922 2.34917,1.045964 0.653259,0.291042 1.254365,0.529167 1.335794,0.529167 0.446008,0 8.175052,4.064924 8.874382,4.667292 0.22974,0.197885 0.5274,0.364617 0.66146,0.370515 0.13406,0.0059 0.89859,0.518627 1.69896,1.139398 l 1.4552,1.128676 0.0706,6.798102 0.0706,6.798101 -1.52582,-0.04227 c -0.8392,-0.02325 -3.1927,-0.13404 -5.22999,-0.246197 z m 15.74676,-6.378122 c 0.002,-3.682178 0.0915,-6.821115 0.19844,-6.975418 0.94991,-1.370982 11.74893,-7.101254 17.92147,-9.509649 1.01864,-0.397454 2.09021,-0.823205 2.38125,-0.946114 0.29104,-0.122909 1.18401,-0.416235 1.98437,-0.651837 0.80037,-0.235601 1.7287,-0.537852 2.06297,-0.67167 0.33427,-0.133812 0.89279,-0.243298 1.24116,-0.243298 0.34837,0 0.69885,-0.105908 0.77885,-0.23535 0.08,-0.129443 0.53351,-0.296354 1.0078,-0.370913 0.47429,-0.07456 1.93391,-0.340304 3.2436,-0.590543 5.67482,-1.084273 12.77459,-1.46507 17.19791,-0.922412 3.05877,0.375251 4.0565,0.749405 5.00532,1.87702 0.63646,0.756385 0.68323,0.995954 0.68323,3.499846 0,2.395359 -0.0778,2.841591 -0.7146,4.100259 -0.9995,1.975477 -5.05012,5.772483 -8.67188,8.128915 -2.63177,1.712322 -9.55997,5.365911 -11.05366,5.829165 -0.32683,0.101362 -1.07049,0.398931 -1.65257,0.661265 -0.58209,0.262335 -1.9513,0.770451 -3.04271,1.129147 -1.81818,0.597553 -2.61214,0.831302 -5.29167,1.557917 -0.50932,0.138112 -1.28323,0.38518 -1.71979,0.549034 -0.52238,0.196064 -4.34418,0.328956 -11.17864,0.38871 l -10.3849,0.09079 0.004,-6.694863 z"
         id="path185"
         sodipodi:nodetypes="ssssssscssssssscccccccccsssssscccssssscccssssssscccsssscccccccssssssscsssssscccccssssscsccssscccsssccccssscscsccsssscsssssssscsssscccssssssscsssssscccccssssscsccsssccccccsssccccccccccccccsscssscsssccccccccccccccccccccccccccssssscccssssccccsssssscssscccsscccscssscsssccccssssscssscccccccccccccccccssssccccssssccccccccccccccsccssscccssssssscsssscssssssssssssssssssssscccsccccsssssssssssssssssssccc" />
      <path
         style="fill:#050403;stroke-width:0.264583"
         d="m 184.33804,243.00926 c -0.003,-4.67352 -0.15675,-5.33213 -1.48845,-6.37965 -0.67682,-0.53238 -0.99138,-0.55253 -8.6263,-0.55253 -4.35812,0 -7.88418,-0.10177 -7.83567,-0.22616 0.0485,-0.12439 1.75507,-1.65522 3.79236,-3.40185 3.73023,-3.19803 6.74328,-6.19014 8.20296,-8.14595 0.43442,-0.58208 0.86348,-1.11786 0.95346,-1.19062 0.09,-0.0728 0.6941,-0.96573 1.3425,-1.98438 4.25517,-6.68502 6.45886,-13.10032 7.62821,-22.20698 0.14821,-1.15426 0.30606,-2.13524 0.35078,-2.17996 0.0447,-0.0447 1.2633,0.82256 2.70795,1.92728 4.51385,3.45173 9.11741,6.26751 9.54605,5.83887 0.0977,-0.0977 0.0476,-0.62469 -0.11132,-1.17112 -0.15892,-0.54643 -0.48854,-1.70788 -0.7325,-2.581 -3.35688,-12.01434 -9.16261,-22.44351 -16.64363,-29.89792 -1.4604,-1.45521 -3.14496,-3.33943 -3.74345,-4.18715 l -1.08817,-1.54131 0.45258,-1.76598 c 1.10456,-4.31 1.18868,-4.98215 1.18123,-9.43889 -0.007,-4.20499 -0.13991,-5.38 -0.9575,-8.46667 -0.93742,-3.53908 -2.20529,-6.44617 -4.15413,-9.525 -1.42898,-2.25755 -4.20787,-5.63482 -5.3888,-6.54916 -0.47802,-0.37012 -1.10726,-0.89781 -1.3983,-1.17264 -1.59897,-1.50994 -5.35648,-3.79347 -8.20209,-4.9846 -4.87352,-2.03999 -11.19799,-2.79469 -16.66875,-1.98909 -2.27266,0.33466 -2.58923,0.41671 -5.82083,1.50858 -7.80928,2.63855 -14.72555,9.03074 -18.51936,17.11605 -3.34145,7.12126 -3.97206,15.22892 -1.82953,23.52206 l 0.46157,1.78663 -0.89075,1.25608 c -0.48991,0.69085 -2.2693,2.62531 -3.95419,4.2988 -3.42571,3.40254 -6.01064,6.71257 -9.13923,11.70291 -1.16151,1.85269 -2.23468,3.37074 -2.38481,3.37344 -0.15013,0.003 -0.43818,-0.56065 -0.64012,-1.25187 -0.59484,-2.03617 -1.603801,-5.18386 -1.844598,-5.75469 -0.12277,-0.29104 -0.558427,-1.3626 -0.968124,-2.38125 -1.587405,-3.94683 -4.741966,-9.06721 -7.360833,-11.94786 -0.814586,-0.89602 -1.481066,-1.7048 -1.481066,-1.79729 0,-0.18107 2.022459,-2.94942 2.597912,-3.55604 0.191926,-0.20232 0.531519,-0.64648 0.75465,-0.98702 0.340241,-0.51927 0.493623,-0.57211 0.95069,-0.3275 0.585915,0.31358 4.618086,0.39096 4.912009,0.0943 0.387331,-0.39097 -3.279281,-2.90595 -6.304844,-4.32457 -1.838433,-0.86201 -2.195695,-0.93543 -4.857687,-0.99834 l -2.873311,-0.0679 -1.394926,-1.66992 c -1.932725,-2.31374 -3.479998,-3.75935 -7.013659,-6.55282 -1.67349,-1.32294 -3.280834,-2.61096 -3.571875,-2.86227 -0.505796,-0.43673 -0.37142,-0.45919 3.042708,-0.50859 4.683061,-0.0677 10.714543,-0.54419 13.361458,-1.05544 2.52266,-0.48725 4.188373,-1.20036 5.357813,-2.29375 0.84128,-0.78657 0.859808,-0.85297 0.855879,-3.06718 -0.0021,-1.24476 -0.156659,-2.77351 -0.343222,-3.39723 -0.335871,-1.12288 -0.711095,-1.24883 -0.711095,-0.23869 0,0.28789 -0.42083,1.39839 -0.93518,2.46777 -0.755139,1.57 -1.221454,2.16046 -2.422147,3.06699 -1.449744,1.09457 -1.537263,1.12245 -3.496588,1.11383 -2.381739,-0.0105 -3.284897,-0.32303 -8.909753,-3.08342 -6.093952,-2.99061 -9.126506,-3.72824 -11.159006,-2.7143 -2.034572,1.01498 -3.919371,4.15189 -4.109479,6.83948 l -0.110004,1.55513 -5.661734,0.001 -5.661734,0.001 -0.07465,-1.55617 c -0.125619,-2.61862 -2.038096,-5.81629 -4.091218,-6.84052 -2.041125,-1.01825 -5.376905,-0.19415 -11.393757,2.8148 -5.188688,2.5948 -6.289376,2.97359 -8.649751,2.97671 -1.739894,0.002 -2.121773,-0.0894 -3.099593,-0.74432 -1.625857,-1.08899 -3.51499,-3.8438 -3.51499,-5.12572 0,-0.54913 -0.674418,-1.59156 -0.89013,-1.37585 -0.07681,0.0768 -0.221406,1.50722 -0.321336,3.17869 l -0.181692,3.03905 0.724207,0.86067 c 1.884264,2.23932 8.346614,3.498 17.955061,3.49712 2.304082,-2.1e-4 4.149551,0.10119 4.101042,0.22533 -0.04851,0.12414 -1.874131,1.65679 -4.056944,3.40588 -4.047302,3.24311 -5.387657,4.50731 -7.186689,6.77832 l -1.015394,1.28179 -2.778125,0.0756 c -2.796074,0.0761 -3.856643,0.33372 -6.176166,1.50005 -1.641269,0.82529 -5.206894,3.44221 -5.045628,3.70315 0.196006,0.31714 4.26848,0.28567 4.872622,-0.0377 0.427458,-0.22877 0.750861,0.068 2.363856,2.16938 1.027759,1.33893 1.867366,2.55952 1.865797,2.71242 -0.0016,0.15291 -0.448133,0.75427 -0.992367,1.33635 -3.761973,4.02361 -7.156776,9.92566 -9.055055,15.74271 -2.730201,8.36639 -2.731223,18.85094 -0.0026,27.25209 0.30721,0.94588 0.730266,2.09497 0.940123,2.55352 0.209857,0.45856 0.381558,0.91289 0.381558,1.00964 0,0.63822 4.304877,8.26252 5.009504,8.87225 0.08408,0.0728 0.504997,0.60854 0.935361,1.19063 2.012976,2.72263 6.091925,6.64049 9.268677,8.90263 1.74767,1.24451 2.248958,1.68147 2.248958,1.96036 0,0.10184 -0.771115,1.00259 -1.713593,2.00166 -1.628611,1.72641 -2.646859,3.26712 -3.126136,4.73014 -0.119182,0.3638 -0.438068,2.3678 -0.708639,4.45332 -0.270571,2.08552 -0.546193,3.8461 -0.612492,3.9124 -0.118954,0.11895 -2.164345,-1.96345 -4.968513,-5.05843 -0.791096,-0.87312 -1.497877,-1.64703 -1.570638,-1.71979 -1.138377,-1.13838 -6.335678,-7.70605 -7.746955,-9.78958 -4.0210949,-5.93656 -6.2005366,-9.58005 -8.5463933,-14.2875 -1.2383187,-2.48495 -3.0212347,-6.32344 -3.0212347,-6.5045 0,-0.0637 -0.225425,-0.62057 -0.5009436,-1.23745 -0.77972175,-1.74577 -2.30759,-5.919 -3.0744662,-8.39764 -0.3826987,-1.23692 -0.7991078,-2.54661 -0.9253564,-2.91041 -0.6988228,-2.01379 -2.4664512,-10.0575 -3.0234335,-13.75834 -0.2080604,-1.38245 -0.5329952,-3.52557 -0.722077,-4.7625 -0.4670054,-3.05504 -0.4894474,-23.16272 -0.028795,-25.79687 0.1781387,-1.01865 0.5124238,-3.16177 0.7428574,-4.7625 0.4109535,-2.85477 0.7391956,-4.63672 1.194054,-6.4823 0.1255289,-0.50932 0.5438801,-2.23572 0.9296718,-3.83645 1.2118948,-5.02841 3.10669512,-10.76418 4.9155508,-14.87993 0.2711159,-0.61688 0.4929373,-1.17538 0.4929373,-1.24111 0,-0.16146 1.9502543,-4.3703 3.0122998,-6.50084 4.4674419,-8.96202 11.2786666,-18.857325 17.3580136,-25.217615 0.947317,-0.991095 1.762252,-1.914334 1.810965,-2.051643 0.268142,-0.755832 8.950251,-8.457806 13.802055,-12.243927 2.317507,-1.808472 7.425378,-5.238769 9.826279,-6.599039 0.634661,-0.35958 1.927836,-1.099365 2.873721,-1.643973 1.858762,-1.070208 8.853038,-4.631304 9.096251,-4.631304 0.08167,0 0.799227,-0.297656 1.59458,-0.661458 0.795351,-0.363802 1.514552,-0.661459 1.598224,-0.661459 0.08367,0 0.656846,-0.226462 1.273725,-0.50325 1.166717,-0.523497 3.999156,-1.574496 5.965127,-2.213409 0.626649,-0.203653 1.1514,-0.479388 1.166114,-0.612746 0.01471,-0.133358 -0.378937,-0.441243 -0.874779,-0.684192 C 60.917158,52.453584 58.941501,51.306552 54.821693,48.090642 50.556707,44.761405 47.81161,41.118287 46.846979,37.507107 46.28443,35.40115 46.374978,30.134068 47.003284,28.415098 c 1.414852,-3.87087 4.104212,-5.901669 9.141325,-6.902827 1.607461,-0.319493 14.235216,-0.243339 16.801042,0.101321 2.062549,0.277056 7.787283,1.408869 8.73125,1.726218 0.363802,0.122305 1.375833,0.424921 2.248958,0.672479 2.44738,0.693908 9.25893,3.008447 10.847917,3.686082 0.436563,0.186175 1.508125,0.614641 2.38125,0.952146 2.12407,0.821056 7.410324,3.535024 8.490954,4.359265 0.47655,0.363477 0.97452,0.660866 1.1066,0.660866 0.13209,0 0.31926,-2.470546 0.41592,-5.490104 0.17865,-5.580383 0.46203,-7.423418 1.39855,-9.095782 0.79004,-1.410805 1.13005,-1.641287 2.57253,-1.743856 1.7542,-0.124735 2.45954,0.274422 3.28448,1.858732 1.0644,2.044199 1.36462,4.092062 1.37479,9.377781 0.006,3.127705 0.10521,4.828646 0.28158,4.828646 0.14975,0 1.61897,-0.654844 3.26493,-1.455208 1.64596,-0.800365 3.06255,-1.455209 3.14798,-1.455209 0.13911,0 1.24946,-0.494806 5.61793,-2.503504 2.36908,-1.089344 3.15069,-1.416464 4.7625,-1.993197 0.87313,-0.312419 1.82563,-0.673002 2.11667,-0.801296 0.68986,-0.304098 3.97429,-1.317135 5.15937,-1.591339 0.50933,-0.117847 1.65332,-0.396578 2.54222,-0.619403 1.6069,-0.402811 3.55188,-0.780049 6.58591,-1.277369 2.50669,-0.410882 16.17958,-0.564156 17.59479,-0.197239 3.27958,0.850287 4.86291,1.646724 6.51087,3.275049 2.3314,2.303624 2.75041,3.569509 2.74668,8.297911 -0.005,5.846187 -0.89952,7.902616 -5.39044,12.386775 -2.12845,2.125261 -6.2064,5.39653 -6.72727,5.39653 -0.14891,0 -0.31043,0.09717 -0.35894,0.215939 -0.11369,0.278374 -5.13051,3.138792 -7.36423,4.198837 -3.01153,1.429163 -4.61392,2.113886 -8.05186,3.440674 -1.55086,0.598511 -1.72764,0.907994 -0.74599,1.305986 4.66742,1.892329 5.27993,2.167469 9.32701,4.189656 4.79365,2.395223 6.39698,3.29188 10.27298,5.745128 17.0219,10.773728 31.4988,26.773723 40.4162,44.668364 1.23832,2.48495 3.02124,6.32343 3.02124,6.5045 0,0.0637 0.22542,0.62057 0.50093,1.23745 0.69096,1.54702 2.28463,5.84503 2.81946,7.60388 0.24339,0.80037 0.65736,2.11006 0.91995,2.91042 0.2626,0.80037 0.79068,2.7649 1.17351,4.36563 0.38285,1.60073 0.79878,3.32713 0.9243,3.83645 0.45347,1.83988 0.78274,3.6248 1.19586,6.4823 0.23143,1.60073 0.5656,3.80338 0.74258,4.89479 0.44291,2.73128 0.44291,22.66871 0,25.4 -0.17698,1.09141 -0.51115,3.29406 -0.74258,4.89479 -0.67151,4.64488 -2.21512,11.28936 -3.74944,16.13958 -2.155,6.81243 -5.79906,15.33574 -8.82332,20.6375 -0.24903,0.43657 -0.87517,1.53361 -1.39143,2.43787 -0.9967,1.74579 -3.93384,6.37698 -4.74643,7.48401 -4.8747,6.64104 -7.65359,9.97017 -14.0221,16.79859 l -0.98934,1.06079 -0.003,-4.31262 z M 24.262273,232.57135 c 0,-0.30617 -1.968548,-2.15788 -2.840638,-2.67203 -0.534279,-0.315 -0.07563,0.47627 0.973698,1.67985 0.44405,0.50932 0.807643,1.01534 0.807985,1.12448 2.64e-4,0.10914 0.238746,0.19843 0.529788,0.19843 0.291042,0 0.529167,-0.14882 0.529167,-0.33073 z m 164.570837,0.12745 c 0,-0.11181 0.48281,-0.79642 1.07292,-1.52136 0.5901,-0.72494 1.21672,-1.49666 1.39249,-1.71494 1.60321,-1.991 5.75277,-8.17213 7.12953,-10.62003 0.35694,-0.63466 0.91965,-1.63018 1.25046,-2.21226 1.56452,-2.75288 2.37261,-4.43421 2.23679,-4.65396 -0.0819,-0.13246 -0.44091,-0.24083 -0.79789,-0.24083 -0.74779,0 -4.10315,-1.54324 -6.12397,-2.81662 l -1.38029,-0.86976 -0.40565,0.57914 c -0.2231,0.31853 -0.40564,0.72874 -0.40564,0.91158 0,0.43439 -1.25952,4.3105 -1.59354,4.90405 -0.1422,0.25268 -0.25855,0.5772 -0.25855,0.72116 0,0.45397 -2.52589,5.61275 -3.81952,7.80083 -0.68251,1.15442 -1.94779,3.0257 -2.81174,4.15841 -0.86395,1.1327 -1.57082,2.17216 -1.57082,2.30991 0,0.13774 0.62508,0.45604 1.38906,0.70732 1.40416,0.46186 3.24528,1.57174 3.88407,2.34144 0.36635,0.44142 0.81229,0.55995 0.81229,0.21592 z M 7.851793,206.5099 c 0,0 -0.132461,-0.67469 -0.2866443,-1.25678 -1.5014945,-5.66858 -1.7278455,-15.00323 -0.5196734,-21.43125 0.5400887,-2.87351 1.4077077,-6.01427 2.1196062,-7.67291 0.1249151,-0.29104 0.373933,-0.94589 0.5533708,-1.45521 0.5273967,-1.497 2.9316787,-6.36732 3.8794927,-7.85865 1.135504,-1.78664 1.118275,-2.13004 -0.117443,-2.34062 -1.610712,-0.27449 -4.0051595,-1.15779 -6.5484377,-2.41567 -1.3096875,-0.64777 -2.4621622,-1.25932 -2.5610555,-1.35901 -0.2229961,-0.2248 3.3421108,-4.94054 4.9393448,-6.53351 0.7361954,-0.73423 4.0701254,-3.54744 4.7654604,-4.02116 1.676109,-1.14189 4.839489,-2.70413 6.614584,-3.26662 2.506797,-0.79435 2.52512,-0.81618 1.038465,-1.23736 -2.025012,-0.5737 -4.537633,-1.8597 -5.729224,-2.9323 -1.218993,-1.09727 -2.546992,-3.0956 -3.110034,-4.67989 -0.441288,-1.24171 -0.486206,-6.86321 -0.06394,-8.00298 0.148397,-0.40055 0.470148,-1.44265 0.715004,-2.31577 0.715193,-2.5503 0.996088,-3.32276 2.09527,-5.76193 0.37886,-0.84072 0.688838,-1.58364 0.688838,-1.65093 0,-0.16712 2.232549,-3.55503 2.836767,-4.30482 1.738733,-2.15764 5.186156,-2.21288 6.635496,-0.10631 1.002128,1.45655 1.182762,2.32768 1.011751,4.87924 -0.51471,7.67962 -0.514988,7.76245 -0.03037,9.0314 0.333382,0.87294 0.612748,1.22064 0.980768,1.22064 0.283027,0 2.380212,-0.92638 4.660408,-2.05862 2.280195,-1.13224 4.741121,-2.27258 5.468725,-2.53409 0.727605,-0.26151 1.561042,-0.57674 1.852084,-0.70051 1.092208,-0.4645 3.358263,-0.84308 5.112033,-0.85406 3.277618,-0.0205 5.713283,0.87328 7.905742,2.9011 1.183418,1.09455 3.783266,4.72135 3.783266,5.27766 0,0.19237 0.2169,0.34977 0.482002,0.34977 0.318389,0 0.67608,-0.42661 1.053741,-1.25677 1.452737,-3.19335 4.932418,-6.2228 7.989257,-6.95553 2.368627,-0.56777 6.279632,-0.31827 8.334375,0.53167 0.291042,0.12039 0.945886,0.36544 1.455209,0.54456 0.509323,0.17912 2.974215,1.32224 5.477541,2.54025 2.503324,1.21801 4.776166,2.21457 5.050759,2.21457 0.963869,0 1.185979,-1.16279 1.086593,-5.68854 -0.166026,-7.56039 -0.146293,-7.84318 0.62665,-8.98067 0.379074,-0.55785 1.024255,-1.23518 1.433737,-1.50517 0.958318,-0.63186 3.165364,-0.66215 4.031718,-0.0553 0.919099,0.64376 2.455826,2.39867 3.062793,3.49764 0.291042,0.52696 0.588889,1.01764 0.661879,1.0904 0.212088,0.21141 0.976892,1.9079 1.87864,4.16719 0.130683,0.32742 0.349594,0.8632 0.486465,1.19062 0.312645,0.7479 1.451484,4.68092 1.839794,6.3538 0.92137,3.96936 -0.23517,8.47415 -2.843742,11.07661 -1.40758,1.40428 -4.078173,2.90675 -6.077426,3.41914 -0.753261,0.19306 -1.368436,0.4178 -1.367052,0.49943 0.0013,0.0816 0.86459,0.42585 1.918229,0.76493 2.661478,0.8565 3.400843,1.22337 6.359192,3.15534 2.960119,1.93313 5.616169,4.45621 8.233249,7.82105 0.99777,1.28287 1.90999,2.23537 2.02716,2.11667 0.11716,-0.1187 0.10507,-1.04926 -0.0269,-2.0679 -0.34894,-2.69391 -0.3093,-5.24821 0.13633,-8.78385 0.41444,-3.2882 0.56086,-3.95013 1.62706,-7.35574 0.81326,-2.59767 0.84411,-2.67567 2.09248,-5.29166 2.56505,-5.37514 6.9059,-10.73432 11.36504,-14.03118 0.58208,-0.43036 1.11787,-0.84529 1.19063,-0.92207 0.0728,-0.0768 0.90619,-0.63599 1.85208,-1.24271 3.03592,-1.94733 7.73016,-3.92259 11.4129,-4.80236 2.06628,-0.49362 6.83792,-1.09439 8.69217,-1.09439 3.59688,0 8.81979,0.90266 12.57097,2.1726 1.88709,0.63887 6.57715,2.85345 6.70278,3.16497 0.0485,0.12027 0.20897,0.21868 0.35659,0.21868 1.00494,0 7.9933,6.00863 10.15491,8.73125 1.08803,1.3704 2.97962,4.145 3.62182,5.31251 0.36651,0.66631 0.79159,1.44022 0.94463,1.7198 1.40996,2.5758 2.83987,6.75172 3.79797,11.09165 0.54806,2.48254 0.4622,12.38829 -0.13045,15.05051 l -0.46436,2.08594 3.12213,3.20573 c 1.71717,1.76315 3.86531,4.21776 4.77365,5.45469 0.90834,1.23693 1.74014,2.36802 1.84843,2.51354 0.54729,0.73542 2.18128,3.31848 2.18128,3.44823 0,0.082 0.39424,0.76843 0.87609,1.52542 0.82514,1.29629 4.15099,7.8951 4.15099,8.23595 0,0.0867 0.22593,0.66235 0.50207,1.27923 0.27613,0.61687 0.71687,1.77643 0.97942,2.5768 0.26254,0.80036 0.5724,1.56832 0.68856,1.70656 0.11616,0.13825 0.2112,0.46728 0.2112,0.7312 0,0.26391 0.11271,0.68658 0.25047,0.93927 0.26101,0.47878 0.90455,2.5604 1.19216,3.85621 0.25382,1.14363 0.81101,0.48022 1.48338,-1.76621 0.31197,-1.04233 0.66065,-2.13328 0.77482,-2.42432 0.33454,-0.85274 0.75459,-2.45009 1.46108,-5.55625 1.01312,-4.45421 1.13242,-5.07313 1.58097,-8.20209 0.22947,-1.60073 0.53261,-3.63851 0.67363,-4.52842 0.33348,-2.1044 0.33348,-21.3825 0,-23.4869 -0.14102,-0.88991 -0.44416,-2.9277 -0.67363,-4.52843 -0.40791,-2.84539 -0.73607,-4.61663 -1.20102,-6.48229 -0.12694,-0.50932 -0.41588,-1.75948 -0.6421,-2.77812 -0.47529,-2.14018 -0.90276,-3.74338 -1.19929,-4.49792 -0.11438,-0.29104 -0.40756,-1.24354 -0.65151,-2.11667 -0.24395,-0.87312 -0.54565,-1.82562 -0.67043,-2.11666 -0.12479,-0.29105 -0.37812,-1.00542 -0.56297,-1.5875 -0.18485,-0.58209 -0.43084,-1.17145 -0.54666,-1.30969 -0.11581,-0.13825 -0.21057,-0.41791 -0.21057,-0.62147 0,-0.36078 -0.12445,-0.67752 -1.29877,-3.30562 -0.31163,-0.69741 -0.7652,-1.76897 -1.00793,-2.38125 -0.24274,-0.61227 -1.27145,-2.72057 -2.28604,-4.6851 -1.01458,-1.96453 -1.97385,-3.83884 -2.13171,-4.16512 -0.15785,-0.32629 -0.3763,-0.59418 -0.48544,-0.59532 -0.10914,-0.001 -0.19844,-0.12617 -0.19844,-0.27786 0,-0.50134 -6.31656,-10.09781 -7.13289,-10.8367 -0.0804,-0.0728 -0.50066,-0.60854 -0.93394,-1.190625 -4.91293,-6.600238 -13.92686,-15.357142 -21.11998,-20.517761 -0.7003,-0.50242 -1.59327,-1.157599 -1.98437,-1.455957 -1.26125,-0.962146 -5.82017,-3.823158 -6.09206,-3.823158 -0.14492,0 -0.30318,-0.09846 -0.35169,-0.21881 -0.1995,-0.494945 -12.82998,-6.92494 -13.60271,-6.92494 -0.0901,0 -0.59856,-0.190733 -1.12987,-0.423852 -1.51051,-0.662747 -1.93202,-0.826876 -3.34728,-1.303377 -0.72761,-0.244975 -1.56104,-0.546886 -1.85209,-0.670909 -1.32429,-0.564335 -4.64369,-1.545762 -6.08541,-1.799241 -0.88435,-0.155482 -7.44714,-0.343106 -14.81667,-0.423595 -7.27604,-0.07947 -19.3836,-0.220716 -26.9057,-0.313883 -9.251915,-0.114591 -13.91699,-0.0801 -14.419791,0.106624 -0.408792,0.15181 -1.457635,0.476724 -2.33076,0.722029 -2.637282,0.740948 -4.996214,1.465258 -5.55625,1.706047 -0.291042,0.125135 -1.124479,0.427953 -1.852083,0.672928 -1.415259,0.476501 -1.836772,0.64063 -3.347278,1.303377 -0.531316,0.233119 -1.040382,0.423852 -1.131256,0.423852 -0.749771,0 -13.407736,6.444639 -13.601327,6.92494 -0.04851,0.120346 -0.208846,0.21881 -0.356306,0.21881 -0.14746,0 -1.298398,0.68058 -2.55764,1.512401 -1.259239,0.831818 -2.482138,1.63549 -2.717551,1.785938 -6.019483,3.846869 -15.015205,11.866594 -20.606351,18.370643 -3.50148,4.073192 -9.202936,12.034959 -11.008442,15.372689 -0.275513,0.50932 -0.560464,0.98557 -0.633224,1.05833 -0.347287,0.34729 -4.2449224,7.9523 -4.7460406,9.26042 -0.1951143,0.50932 -0.6195483,1.52135 -0.9431867,2.24896 -0.323641,0.7276 -0.79756,1.85869 -1.0531528,2.51354 -0.2555954,0.65484 -0.5575114,1.42875 -0.6709251,1.71979 -0.1134136,0.29104 -0.3493029,0.94588 -0.5241951,1.45521 -0.1748923,0.50932 -0.4159383,1.16416 -0.5356569,1.45521 -0.1197187,0.29104 -0.4172665,1.24354 -0.6612202,2.11666 -0.2439538,0.87313 -0.534207,1.82563 -0.6450092,2.11667 -0.3670829,0.96422 -0.7459874,2.35743 -1.1872886,4.36562 -0.2398395,1.09141 -0.5385144,2.4011 -0.6637258,2.91042 -0.47117,1.91658 -0.7931706,3.65906 -1.1978905,6.48229 -0.22947048,1.60073 -0.53260625,3.63852 -0.67363181,4.52843 -0.33349142,2.1044 -0.33349142,21.3825 0,23.4869 0.14102556,0.88991 0.44416133,2.92769 0.67363181,4.52842 0.40789754,2.8454 0.7360682,4.61664 1.2010178,6.4823 0.1269312,0.50932 0.4158748,1.75947 0.6420962,2.77812 0.4752922,2.14018 0.9027556,3.74338 1.1992874,4.49792 0.1143794,0.29104 0.4075589,1.24354 0.6515127,2.11666 0.2439537,0.87313 0.5415015,1.82563 0.6612202,2.11667 0.1197186,0.29104 0.3627067,0.94589 0.5399749,1.45521 0.1772708,0.50932 0.4869418,1.30122 0.68816,1.75978 0.201221,0.45855 0.3658553,1.24115 0.3658553,1.24115 l 0.2645833,0.57094 0.2645834,0.68538 0.3398552,0.70433 0.2503509,0.56736 0.1752361,0.29189 0.2865781,-0.19843 z M 124.1897,95.738401 c -1.40215,-0.333378 -3.29155,-2.151477 -1.54392,-4.899363 0.5275,-0.829411 1.65368,-1.277168 2.63557,-1.32262 0.86767,-0.04017 1.83534,0.31267 2.42699,0.948598 0.5812,0.624701 0.91206,1.605904 0.75766,2.445077 -0.25279,1.373977 -0.5397,2.18699 -1.86284,2.659396 -1.52666,0.54507 -2.41346,0.168912 -2.41346,0.168912 z m 30.42634,-2.413503 c -0.76609,-0.49173 -1.40182,-0.991444 -1.6222,-2.196968 -0.19007,-1.039681 -0.53466,-1.660937 0.89795,-3.040926 0.84328,-0.8123 2.35057,-1.032122 3.45383,-0.639989 1.01787,0.361785 1.78974,1.434095 2.09905,2.469122 0.2518,0.842576 0.18676,1.903363 -0.32571,2.618003 -0.53992,0.752922 -1.58275,1.097177 -2.50237,1.209857 -0.67627,0.08286 -1.42718,-0.05107 -2.00055,-0.419099 z M 136.1637,85.014292 c -0.81966,-0.297966 -1.32072,-0.930442 -1.73244,-1.728919 -0.41172,-0.798477 -0.5188,-1.834097 -0.073,-2.704395 0.4458,-0.870298 1.35849,-1.596166 2.6147,-1.777413 1.25621,-0.181247 2.43372,0.570783 2.57029,0.910049 0.62504,0.364042 1.23396,1.625638 1.03364,2.710742 -0.20032,1.085104 -0.75672,1.829779 -1.63847,2.347824 -0.88175,0.518045 -1.95506,0.540078 -2.77472,0.242112 z m -31.96806,85.644558 c 0.32692,-0.47294 1.91261,-2.20915 3.52375,-3.85823 1.61114,-1.64909 2.90811,-3.13737 2.88217,-3.3073 -0.28603,-1.87331 -0.56146,-2.68061 -0.88876,-2.60503 -0.20285,0.0468 -1.44446,0.60092 -2.75915,1.23129 -2.26132,1.08427 -4.92822,2.05289 -6.56885,2.38582 -1.109824,0.22521 -1.113544,0.7106 -0.0186,2.41841 0.54738,0.85373 1.32778,2.23684 1.73421,3.07358 0.40643,0.83675 0.91037,1.52136 1.11987,1.52136 0.20949,0 0.64838,-0.38695 0.9753,-0.8599 z m 2.81954,-121.825705 -0.0706,-6.798102 -1.4552,-1.128676 c -0.80037,-0.620771 -1.5649,-1.133501 -1.69896,-1.139398 -0.13406,-0.0059 -0.43172,-0.17263 -0.66146,-0.370515 -0.69933,-0.602368 -8.428374,-4.667292 -8.874382,-4.667292 -0.08143,0 -0.682535,-0.238125 -1.335794,-0.529167 -0.653257,-0.291042 -1.710383,-0.761726 -2.34917,-1.045964 -0.638786,-0.284239 -1.501989,-0.598313 -1.918229,-0.697941 -0.41624,-0.09963 -0.875863,-0.26092 -1.021384,-0.358425 -0.145521,-0.0975 -1.336146,-0.514476 -2.645833,-0.926601 -1.309688,-0.412127 -2.619375,-0.842746 -2.910417,-0.956932 -0.291042,-0.114186 -0.826823,-0.266517 -1.190625,-0.338514 -0.363802,-0.072 -1.613958,-0.364324 -2.778125,-0.649618 -6.214478,-1.522934 -14.990617,-2.077851 -20.241829,-1.279893 -2.73332,0.415347 -3.630737,0.820042 -4.42069,1.993536 -0.522208,0.775752 -0.605189,1.234879 -0.605189,3.348434 0,2.027695 0.101711,2.639966 0.590764,3.556186 1.295979,2.427973 3.062028,4.229653 7.611319,7.764883 0.613476,0.476728 3.159405,2.081871 4.351983,2.743813 2.255528,1.251935 8.671848,4.309537 9.043477,4.309537 0.08284,0 0.585322,0.190732 1.116637,0.423851 1.710978,0.750705 1.990339,0.852832 4.141028,1.513851 2.239756,0.688396 3.232264,0.795089 11.641667,1.251471 2.910416,0.157951 6.958541,0.378947 8.995832,0.491107 2.03729,0.112157 4.39079,0.222946 5.22999,0.246197 l 1.52582,0.04227 z m 30.62105,6.346867 c 0.43656,-0.163854 1.21047,-0.410922 1.71979,-0.549034 2.67953,-0.726615 3.47349,-0.960364 5.29167,-1.557917 1.09141,-0.358696 2.46062,-0.866812 3.04271,-1.129147 0.58208,-0.262334 1.32574,-0.559903 1.65257,-0.661265 1.49369,-0.463254 8.42189,-4.116843 11.05366,-5.829165 3.62176,-2.356432 7.67238,-6.153438 8.67188,-8.128915 0.63683,-1.258668 0.7146,-1.7049 0.7146,-4.100259 0,-2.503892 -0.0468,-2.743461 -0.68323,-3.499846 -0.94882,-1.127615 -1.94655,-1.501769 -5.00532,-1.87702 -4.42332,-0.542658 -11.52309,-0.161861 -17.19791,0.922412 -1.30969,0.250239 -2.76931,0.515983 -3.2436,0.590543 -0.47429,0.07456 -0.9278,0.24147 -1.0078,0.370913 -0.08,0.129442 -0.43048,0.23535 -0.77885,0.23535 -0.34837,0 -0.90689,0.109486 -1.24116,0.243304 -0.33427,0.133817 -1.2626,0.436068 -2.06297,0.67167 -0.80036,0.235601 -1.69333,0.528928 -1.98437,0.651836 -0.29104,0.122909 -1.36261,0.54866 -2.38125,0.946115 -6.17254,2.408394 -16.97156,8.138666 -17.92147,9.509648 -0.10692,0.154304 -0.19621,3.293241 -0.19844,6.975418 l -0.004,6.694863 10.3849,-0.09079 c 6.83446,-0.05975 10.65626,-0.192646 11.17864,-0.38871 z m 8.58372,118.252458 c -1.90802,-1.14414 -4.28365,-3.07697 -5.73881,-4.66914 -1.21587,-1.33036 -2.9772,-4.36889 -2.9772,-5.13608 0,-0.94734 2.63246,-2.90514 5.42396,-4.03388 2.44684,-0.98939 8.05171,-0.98462 10.58333,0.009 2.78527,1.09317 5.42396,3.0478 5.42396,4.01785 0,0.90635 -1.35209,2.69961 -4.06941,5.39721 -3.01042,2.98859 -5.8727,5.14941 -6.81211,5.14266 -0.34532,-0.002 -1.17049,-0.32991 -1.83372,-0.72761 z"
         id="path183"
         sodipodi:nodetypes="csssssssssssscsscssssssssssscssscssssssssssscssscsscsssssssscccssscsssscssssscssssssssssssssssssssssssssssssssssssssssssssssscssssssssssssssssssssssssssscsssssssssssssssssssssssscccssscsssssssssscsssssssssscssssssssssssssssssssssssssssssssssssssssssssssscsssscsssssssssssssssscssssssssssssssssssssssssssssssscssssssssssssssssssssssscssssssssssssssssssssssssccccccccssaasssassaaaaazzzzczzzcscssssssccccsssssssssssssssssssssssscccssssssssssssssssssccsccssssssscss" />
    </g>
  </g>
</svg>
